<?xml version="1.0" standalone="no"?>
<!DOCTYPE svg PUBLIC "-//W3C//DTD SVG 20010904//EN"
 "http://www.w3.org/TR/2001/REC-SVG-20010904/DTD/svg10.dtd">
<svg version="1.0" xmlns="http://www.w3.org/2000/svg"
 width="512.000000pt" height="512.000000pt" viewBox="0 0 512.000000 512.000000"
 preserveAspectRatio="xMidYMid meet">

<g transform="translate(0.000000,512.000000) scale(0.100000,-0.100000)"
fill="#000000" stroke="none">
<path d="M794 4400 c-28 -11 -146 -134 -234 -244 -293 -364 -475 -793 -541
-1276 -18 -125 -18 -515 0 -640 77 -556 314 -1055 682 -1438 77 -79 99 -92
161 -92 79 0 140 63 140 144 0 57 -11 76 -95 166 -336 360 -552 841 -596 1330
-59 644 157 1280 596 1750 84 90 95 109 95 165 0 55 -23 98 -65 124 -36 22
-103 27 -143 11z"/>
<path d="M4179 4385 c-38 -25 -46 -38 -59 -93 -14 -56 6 -97 91 -190 522 -565
721 -1327 543 -2077 -88 -367 -276 -717 -543 -1007 -85 -93 -104 -133 -91
-191 22 -99 129 -148 217 -99 36 20 157 150 248 266 712 915 712 2217 0 3132
-91 116 -212 246 -248 267 -46 25 -115 22 -158 -8z"/>
<path d="M1389 3841 c-49 -16 -69 -32 -145 -119 -586 -670 -586 -1654 0 -2325
84 -96 121 -120 181 -120 82 0 145 61 145 141 0 60 -11 79 -89 166 -245 270
-374 606 -374 976 0 370 129 706 374 976 78 87 89 106 89 166 0 92 -95 165
-181 139z"/>
<path d="M3645 3835 c-22 -8 -41 -15 -42 -15 -1 0 -14 -17 -28 -37 -26 -40
-33 -100 -16 -145 5 -13 41 -59 80 -102 500 -550 500 -1402 0 -1952 -78 -87
-89 -106 -89 -166 0 -80 63 -141 145 -141 60 0 97 24 181 120 584 669 584
1657 0 2326 -102 116 -152 140 -231 112z"/>
<path d="M2392 3499 c-299 -53 -568 -263 -698 -543 -65 -141 -79 -212 -79
-396 0 -142 3 -176 23 -244 96 -334 344 -582 678 -678 68 -20 102 -23 244 -23
192 0 262 15 415 90 248 120 428 337 507 611 20 68 23 102 23 244 0 142 -3
176 -23 244 -79 274 -259 491 -507 611 -141 69 -216 86 -385 90 -80 2 -169 0
-198 -6z"/>
</g>
</svg>
